<?xml version="1.0" encoding="UTF-8" standalone="no"?>
<!-- Created with Serif DrawPlus 11, 0, 3, 23 (Feb 25, 14:12:55) (http://www.serif.com) -->
<svg version="1.1" xmlns="http://www.w3.org/2000/svg" xmlns:xlink="http://www.w3.org/1999/xlink" width="26" height="26">
	<g id="Layer_1">
		<path id="dp_path001" fill="black" fill-rule="evenodd" stroke="none" stroke-width="1.33333" d="M 2.00133,5 C 2.00133,3.896 2.896,3 4,3 L 21.9987,3 C 23.1027,3 23.9987,3.896 23.9987,5 L 23.9987,4.99867 C 23.9987,6.10267 23.1027,6.99867 21.9987,6.99867 L 4,6.99867 C 2.896,6.99867 2.00133,6.10267 2.00133,4.99867 Z "/>
		<path id="dp_path002" fill="black" fill-rule="evenodd" stroke="none" stroke-width="1.33333" d="M 2.00133,13 C 2.00133,11.896 2.896,11 4,11 L 21.9987,11 C 23.1027,11 23.9987,11.896 23.9987,13 L 23.9987,12.9987 C 23.9987,14.1027 23.1027,14.9987 21.9987,14.9987 L 4,14.9987 C 2.896,14.9987 2.00133,14.1027 2.00133,12.9987 Z "/>
		<path id="dp_path003" fill="black" fill-rule="evenodd" stroke="none" stroke-width="1.33333" d="M 2,20.916 C 2,19.8573 2.856,19 3.91467,19 L 22.0813,19 C 23.14,19 23.9973,19.8573 23.9973,20.916 L 23.9973,21.0827 C 23.9973,22.1413 23.14,22.9987 22.0813,22.9987 L 3.91467,22.9987 C 2.856,22.9987 2,22.1413 2,21.0827 Z "/>
	</g>
</svg>